<?xml version="1.0" standalone="no"?>
<!DOCTYPE svg PUBLIC "-//W3C//DTD SVG 20010904//EN"
 "http://www.w3.org/TR/2001/REC-SVG-20010904/DTD/svg10.dtd">
<svg version="1.0" xmlns="http://www.w3.org/2000/svg"
 width="984.000000pt" height="1568.000000pt" viewBox="0 0 984.000000 1568.000000"
 preserveAspectRatio="xMidYMid meet">

<g transform="translate(0.000000,1568.000000) scale(0.100000,-0.100000)"
fill="#000000" stroke="none">
<path d="M6386 10599 c4 -8 0 -9 -15 -4 -29 9 -74 -25 -55 -43 7 -6 22 -12 34
-12 11 0 20 -4 20 -10 0 -5 8 -11 18 -11 9 -1 0 -5 -21 -8 -21 -3 -38 -10 -38
-16 0 -5 17 -13 38 -16 31 -5 33 -6 10 -8 -32 -1 -27 -20 6 -22 13 -1 5 -5
-18 -11 -22 -5 -60 -6 -84 -3 -30 5 -41 3 -36 -4 4 -7 -7 -11 -29 -11 -20 0
-36 5 -36 11 0 7 -15 9 -42 5 -24 -3 -73 -8 -110 -10 -65 -5 -67 -4 -55 15 6
10 21 19 32 20 11 0 29 5 40 10 14 6 4 8 -35 5 -55 -4 -119 -23 -131 -40 -4
-5 -19 -6 -34 -2 -19 5 -33 2 -46 -9 -18 -17 -45 -12 -34 5 3 5 -17 -1 -46
-15 -54 -25 -93 -55 -71 -55 30 0 7 -30 -35 -46 -27 -9 -53 -23 -59 -31 -6 -7
-15 -13 -19 -13 -5 0 -18 -8 -29 -18 -12 -10 -46 -29 -76 -42 -74 -31 -100
-49 -93 -66 3 -8 -4 -17 -18 -23 -24 -9 -79 -61 -65 -61 15 0 111 55 123 70 6
8 15 12 19 8 6 -7 -26 -40 -105 -109 -46 -39 -29 -37 42 7 32 20 61 33 64 30
3 -3 -2 -8 -11 -12 -9 -3 -16 -15 -16 -26 0 -10 -6 -18 -13 -16 -8 2 -36 -18
-62 -44 -27 -27 -42 -48 -35 -48 8 0 31 18 51 40 34 36 69 53 69 32 0 -4 -13
-23 -30 -42 -47 -56 -38 -82 12 -35 33 30 38 31 31 5 -3 -11 -3 -20 1 -20 3 0
35 25 71 55 67 57 85 66 85 40 0 -8 -4 -15 -10 -15 -5 0 -10 -9 -10 -20 0 -12
-7 -20 -16 -20 -9 0 -30 -13 -45 -30 -19 -20 -34 -27 -45 -23 -10 4 -15 2 -12
-3 9 -14 -12 -37 -72 -78 -59 -40 -76 -55 -155 -133 -67 -68 -115 -131 -115
-154 0 -10 -8 -23 -18 -28 -20 -11 -56 -91 -41 -91 5 0 9 -9 9 -21 0 -19 -1
-19 -22 -5 -31 22 -32 21 -47 -21 -11 -30 -16 -34 -25 -22 -13 18 -46 13 -46
-7 0 -8 -7 -14 -15 -14 -9 0 -18 -7 -21 -15 -4 -8 -14 -15 -23 -15 -26 0 -81
-56 -81 -82 0 -34 15 -52 39 -45 30 7 26 -9 -9 -45 -17 -16 -29 -35 -28 -41 1
-7 -4 -22 -11 -35 -7 -13 -15 -46 -17 -74 -3 -28 -7 -55 -10 -60 -8 -13 -34
11 -28 27 3 7 0 16 -6 20 -7 4 -8 35 -5 90 l6 83 -30 10 c-17 6 -31 16 -31 21
0 6 -7 11 -16 11 -14 0 -15 -7 -10 -45 6 -37 4 -45 -8 -45 -21 0 -32 -65 -18
-104 7 -20 9 -83 6 -176 -8 -223 -10 -558 -4 -625 l6 -60 21 105 c33 166 73
334 82 350 5 9 12 36 16 60 4 25 20 77 37 115 41 95 46 106 53 133 13 45 50
92 77 98 15 4 30 15 33 25 4 13 13 17 28 15 12 -3 27 -5 32 -6 6 0 2 -7 -9
-15 -10 -7 -15 -18 -12 -24 4 -5 -3 -13 -14 -16 -12 -4 -25 -18 -31 -32 -12
-32 -12 -32 9 -26 16 4 17 -2 12 -56 -4 -39 -2 -61 5 -61 5 0 2 -5 -7 -11 -10
-5 -18 -14 -18 -18 0 -5 -14 -24 -31 -42 -47 -50 -71 -105 -64 -141 4 -17 10
-26 14 -21 3 6 23 18 44 28 29 14 43 15 60 7 12 -6 16 -11 10 -11 -7 -1 -13
-10 -13 -21 0 -15 7 -20 26 -20 31 0 53 -25 54 -58 0 -13 4 -31 9 -41 8 -14 0
-27 -40 -67 -61 -60 -66 -88 -7 -45 43 32 68 39 68 20 0 -5 -4 -7 -10 -4 -6 4
-10 -5 -10 -19 0 -14 -4 -26 -9 -26 -5 0 -12 -9 -16 -19 -3 -11 -15 -23 -26
-26 -37 -12 -79 -65 -79 -101 0 -18 -5 -36 -10 -39 -6 -4 -10 -16 -8 -28 2
-17 -3 -23 -21 -25 -21 -3 -23 -8 -18 -39 9 -53 24 -66 72 -60 25 4 49 1 65
-8 14 -8 52 -14 85 -15 34 0 65 -4 70 -8 6 -5 29 -15 53 -22 58 -18 66 -34 13
-25 -33 5 -41 4 -41 -8 0 -9 6 -18 13 -20 10 -4 10 -6 0 -6 -7 -1 -13 -10 -13
-21 0 -18 -7 -20 -60 -20 l-60 0 4 -31 c2 -18 -1 -33 -9 -35 -9 -4 -11 -18 -8
-45 5 -34 3 -39 -15 -39 -19 0 -22 -16 -13 -72 1 -4 10 -12 21 -18 32 -17 60
7 60 52 0 37 1 38 39 38 37 0 40 2 43 32 2 23 10 36 28 45 19 9 25 20 25 44 0
18 6 34 13 36 8 3 12 -8 12 -36 0 -26 4 -41 13 -41 15 1 67 46 67 58 0 17 29
22 113 22 124 0 127 -2 127 -66 0 -30 -4 -54 -8 -54 -5 0 -17 -16 -28 -35 -10
-19 -24 -35 -30 -35 -7 0 -10 -8 -7 -21 4 -15 0 -22 -15 -26 -21 -5 -23 -11
-36 -106 -3 -20 -12 -44 -20 -53 -9 -8 -16 -24 -16 -34 0 -10 -6 -20 -14 -23
-24 -9 -39 -198 -16 -205 5 -2 10 -10 10 -18 0 -15 41 -36 63 -31 7 1 13 -12
15 -31 2 -20 10 -36 20 -39 9 -4 21 -12 25 -20 4 -7 19 -13 32 -13 13 0 30 -7
39 -15 19 -20 46 -19 46 1 0 12 10 15 53 13 31 -1 62 3 77 12 25 14 31 16 62
18 10 0 26 10 36 21 12 13 30 20 48 18 16 -1 35 1 42 6 6 4 22 1 34 -6 34 -18
80 -22 89 -6 5 7 9 33 9 58 0 25 5 52 10 60 5 8 10 11 10 5 0 -5 7 1 15 15 8
14 14 20 15 13 0 -6 8 -12 18 -12 104 -2 148 2 182 15 35 14 44 25 76 92 32
68 35 81 29 129 -3 29 -10 53 -15 53 -5 0 -23 15 -40 34 -33 35 -55 43 -145
52 -45 5 -53 2 -80 -24 -33 -32 -67 -52 -88 -52 -7 0 -31 16 -53 35 -21 19
-45 35 -51 35 -7 0 -13 7 -13 15 0 9 -6 22 -12 29 -11 12 -17 11 -41 -1 -15
-7 -32 -11 -38 -7 -6 3 -13 -3 -16 -15 -5 -21 -25 -26 -81 -21 -13 1 -28 -3
-35 -8 -7 -5 -29 -15 -49 -21 -32 -11 -39 -19 -49 -54 -7 -23 -11 -55 -11 -72
l2 -30 -17 30 c-19 35 -22 120 -5 137 7 7 12 21 12 31 0 14 5 18 20 14 29 -7
49 13 54 56 4 30 2 36 -8 28 -7 -6 -15 -8 -18 -5 -3 3 -5 -3 -4 -13 1 -12 -7
-19 -24 -21 -24 -3 -24 -3 -5 11 16 13 18 19 8 38 -23 47 -23 83 0 107 11 12
15 22 9 22 -20 0 -14 21 13 46 14 13 25 28 25 34 0 5 3 10 8 10 11 0 42 59 42
81 0 11 4 18 8 15 11 -6 62 48 62 66 0 7 8 25 17 38 10 14 18 31 20 38 1 8 7
21 15 30 21 27 38 61 38 76 0 7 8 16 19 19 17 4 18 14 17 95 -1 50 2 88 6 86
13 -8 9 19 -7 49 -10 21 -12 34 -5 47 13 24 13 70 0 70 -5 0 -10 7 -10 15 0 8
5 15 11 15 8 0 8 5 -1 15 -9 10 -9 15 -1 15 14 0 15 27 1 35 -6 4 -17 1 -25
-5 -12 -10 -15 -9 -15 8 0 16 4 20 16 15 14 -5 14 -3 3 16 -8 11 -20 21 -28
21 -19 0 -61 47 -61 69 0 10 -12 28 -26 42 -23 22 -26 23 -35 6 -8 -13 -23
-17 -64 -17 -51 0 -72 12 -42 23 6 3 -7 8 -30 12 -46 8 -59 25 -20 25 13 0 38
7 54 15 36 18 212 23 365 11 91 -8 97 -10 102 -32 6 -21 9 -23 27 -14 11 6 17
15 14 21 -4 5 1 9 9 9 9 0 21 -9 28 -20 12 -19 13 -19 44 5 17 13 35 20 40 16
21 -20 62 -20 97 -1 36 20 36 20 47 0 7 -13 21 -20 40 -20 44 0 37 -17 -10
-25 -35 -6 -40 -10 -40 -35 0 -29 -21 -55 -34 -42 -4 4 -6 2 -4 -3 2 -6 -12
-24 -29 -41 -39 -37 -43 -71 -10 -77 17 -3 16 -5 -8 -6 -22 -1 -26 -4 -17 -13
7 -7 12 -32 13 -57 1 -43 1 -44 9 -17 5 16 7 33 4 38 -3 4 -1 8 5 8 14 0 26
-70 14 -79 -6 -3 -13 -23 -16 -44 -3 -22 -15 -47 -26 -56 -11 -10 -22 -36 -26
-61 -3 -25 -8 -63 -11 -86 -5 -33 -2 -42 11 -48 11 -4 15 -12 11 -22 -4 -9 -1
-23 5 -30 6 -8 8 -14 5 -14 -4 0 -2 -9 4 -20 14 -26 26 -25 55 4 16 16 22 31
18 42 -4 12 -2 15 8 12 8 -2 15 -14 17 -26 2 -16 10 -22 27 -22 29 0 39 -15
40 -55 0 -22 5 -31 20 -33 11 -2 32 -8 48 -14 25 -10 26 -12 10 -23 -23 -17
-6 -78 22 -83 11 -2 37 -17 57 -33 20 -16 44 -29 52 -29 8 0 37 -8 63 -19 57
-22 147 -36 138 -21 -10 16 12 11 30 -7 11 -11 33 -16 66 -16 27 1 49 -3 49
-8 0 -5 4 -9 10 -9 15 0 50 33 44 42 -9 15 24 8 40 -8 13 -12 23 -14 44 -6 18
6 35 6 45 0 10 -5 26 -6 37 -3 11 4 29 0 42 -9 12 -9 33 -16 45 -16 20 0 23 4
17 28 -4 19 -3 23 4 13 8 -11 16 -8 41 16 17 17 31 35 31 42 0 6 5 11 10 11 6
0 10 7 10 15 0 8 5 15 10 15 6 0 10 8 11 18 0 9 3 12 5 6 3 -7 13 -10 24 -7
28 7 32 107 6 141 -17 22 -18 30 -8 68 15 56 15 84 1 84 -8 0 -10 18 -7 55 3
31 1 58 -3 61 -5 2 -6 11 -2 19 3 9 -1 15 -8 15 -11 0 -11 2 1 10 10 6 14 26
12 75 -2 37 1 64 6 61 13 -8 36 39 27 56 -3 7 1 4 10 -7 12 -15 15 -35 13 -75
-2 -32 1 -59 8 -65 6 -5 21 -46 34 -90 12 -44 30 -96 40 -115 10 -19 23 -55
29 -80 43 -183 45 -204 47 -490 3 -271 2 -287 -18 -328 -14 -30 -24 -40 -31
-33 -7 7 -7 18 1 36 7 14 12 31 12 38 -1 7 -9 -5 -19 -26 -9 -20 -20 -34 -24
-30 -4 3 -27 -14 -51 -40 -24 -26 -51 -47 -60 -47 -19 0 -46 -23 -46 -39 0 -6
-7 -11 -15 -11 -9 0 -15 -9 -15 -25 0 -16 -6 -25 -16 -25 -12 0 -14 -5 -8 -17
19 -43 -1 -113 -28 -97 -4 3 -8 0 -8 -5 0 -6 5 -11 10 -11 14 0 13 -23 -2 -38
-6 -6 -13 -48 -15 -94 -2 -60 -7 -84 -18 -91 -8 -4 -15 -19 -15 -34 0 -14 -11
-38 -25 -55 -14 -16 -25 -39 -25 -51 0 -12 -5 -29 -10 -37 -9 -13 -11 -13 -20
0 -8 13 -10 12 -10 -2 0 -10 8 -18 18 -19 10 0 12 -3 5 -6 -7 -2 -13 -11 -13
-19 0 -9 -4 -12 -10 -9 -5 3 -17 -12 -26 -34 -9 -23 -20 -38 -25 -35 -5 3 -9
-4 -9 -15 0 -12 -5 -21 -10 -21 -10 0 -64 -104 -65 -125 -1 -17 -29 -55 -41
-55 -6 0 -11 -12 -10 -27 1 -20 -4 -29 -19 -31 -28 -6 -57 -33 -51 -49 3 -7
-1 -13 -9 -13 -8 0 -15 -4 -15 -10 0 -5 -11 -12 -25 -16 -14 -3 -23 -9 -20
-13 2 -4 -9 -15 -25 -24 -16 -10 -32 -26 -35 -37 -5 -17 -29 -26 -57 -21 -5 0
-8 -8 -8 -19 0 -11 -4 -20 -10 -20 -5 0 -10 -7 -10 -16 0 -9 -9 -18 -20 -21
-11 -3 -20 -12 -20 -19 0 -8 -9 -19 -20 -26 -12 -8 -23 -28 -26 -49 -4 -20
-17 -49 -29 -64 -13 -14 -21 -33 -18 -41 6 -15 -3 -19 -59 -29 -25 -4 -39 -12
-43 -26 -6 -17 -13 -20 -36 -15 -27 5 -29 3 -29 -24 0 -20 -5 -30 -15 -30 -8
0 -15 5 -15 11 0 7 -52 9 -157 6 -154 -3 -158 -4 -161 -25 -3 -21 -8 -22 -65
-20 -43 2 -68 8 -81 20 -15 13 -29 17 -55 12 -26 -4 -32 -3 -21 5 25 17 -16
25 -52 10 -23 -9 -33 -10 -36 -1 -2 8 -11 8 -29 1 -27 -10 -43 -5 -43 14 -1
16 -60 74 -60 59 0 -7 -5 -12 -11 -12 -6 0 -9 7 -6 15 4 8 2 17 -3 20 -6 4
-10 -1 -10 -9 0 -24 -15 -19 -30 9 -10 20 -11 27 0 39 10 13 8 17 -14 26 -16
6 -24 15 -20 23 3 8 -2 17 -10 20 -9 4 -16 2 -16 -3 0 -6 -10 -6 -26 0 -14 6
-36 10 -50 10 -13 0 -24 5 -24 10 0 7 -6 7 -20 0 -11 -6 -19 -14 -18 -18 4
-11 -35 -52 -50 -52 -7 0 -15 -7 -18 -15 -3 -8 -14 -17 -25 -20 -14 -5 -18
-14 -15 -36 2 -16 0 -32 -5 -35 -13 -8 -11 -72 2 -80 8 -4 7 -9 -2 -14 -10 -7
-10 -11 0 -23 10 -13 9 -16 -8 -22 -37 -11 -38 -55 0 -55 10 0 19 -5 19 -11 0
-8 -17 -9 -53 -5 -29 4 -59 4 -67 1 -30 -11 -21 -113 17 -192 9 -18 13 -41 10
-52 -3 -12 -1 -24 4 -27 6 -3 7 -14 4 -24 -3 -11 0 -20 10 -24 19 -7 19 -55 0
-80 -8 -11 -15 -27 -15 -36 0 -23 -42 -70 -62 -70 -8 0 -21 7 -29 16 -8 10
-22 14 -40 10 -25 -5 -28 -2 -36 32 -10 41 -4 39 -121 29 -34 -3 -42 -1 -40
12 2 11 -6 17 -25 19 -33 4 -58 -13 -50 -34 3 -8 0 -14 -6 -14 -6 0 -11 -13
-11 -29 0 -29 -22 -61 -41 -61 -5 0 -9 -7 -9 -15 0 -8 -5 -15 -10 -15 -6 0 -8
-13 -5 -32 4 -18 3 -29 -1 -25 -4 4 -12 0 -18 -9 -6 -8 -19 -12 -27 -9 -14 5
-14 14 3 86 11 45 17 86 15 92 -11 33 -91 -93 -103 -161 -3 -15 -16 -49 -29
-77 -13 -27 -26 -58 -29 -69 -4 -11 -12 -16 -21 -12 -8 3 -17 0 -21 -6 -4 -7
-3 -8 4 -4 7 4 12 1 12 -8 0 -9 -8 -16 -18 -16 -21 0 -76 -88 -122 -195 -19
-44 -37 -84 -41 -90 -12 -17 -49 -133 -49 -154 0 -11 -4 -23 -10 -26 -5 -3
-10 -19 -10 -36 0 -16 -3 -29 -7 -29 -5 0 -9 -12 -9 -27 -1 -16 -7 -46 -13
-69 -31 -117 -42 -278 -46 -654 -3 -322 3 -446 20 -428 2 2 5 58 6 124 1 121
7 152 27 140 15 -9 26 14 13 27 -7 7 -11 7 -11 1 0 -6 -6 -11 -14 -11 -7 0
-12 7 -11 16 2 9 4 19 4 24 1 4 10 7 21 7 13 0 20 7 20 19 0 14 -5 18 -20 14
-14 -4 -20 0 -20 11 0 9 8 16 20 16 13 0 20 7 20 20 0 13 -7 20 -20 20 -11 0
-20 5 -20 11 0 6 9 13 20 16 12 3 20 14 20 25 0 15 -5 19 -20 15 -30 -8 -25
21 5 33 28 11 24 40 -6 40 -12 0 -16 5 -13 15 7 18 34 20 35 3 3 -44 30 148
34 242 3 63 7 129 11 145 3 17 7 48 10 70 3 22 7 47 10 55 28 71 24 130 -8
130 -11 0 -16 4 -12 11 3 6 15 9 25 6 15 -4 19 0 19 23 0 24 -3 27 -21 23 -16
-4 -20 -2 -17 8 3 8 14 14 25 15 24 1 43 12 43 24 0 4 -9 6 -20 3 -14 -4 -20
0 -20 12 0 12 7 16 27 13 14 -2 28 2 30 9 3 7 -3 9 -16 6 -12 -3 -21 -1 -21 5
0 14 32 85 42 92 3 3 13 30 22 61 23 80 59 149 64 126 2 -10 -3 -26 -12 -36
-9 -10 -16 -29 -16 -42 0 -14 -4 -29 -10 -35 -5 -5 -11 -18 -13 -29 -2 -11 -9
-33 -16 -48 -14 -36 -2 -61 14 -27 21 47 78 130 90 130 11 0 104 -57 115 -71
3 -3 48 -43 100 -89 52 -46 129 -118 170 -161 75 -79 75 -79 132 -83 52 -3 61
0 90 25 36 33 84 49 145 49 23 0 45 5 49 11 4 7 24 9 50 6 34 -3 44 -1 44 10
0 8 5 11 11 7 15 -9 249 -11 249 -1 0 4 7 7 16 7 20 0 64 45 64 65 0 8 5 17
10 20 6 3 10 13 10 21 0 8 -4 12 -10 9 -6 -4 -10 6 -10 24 0 33 4 37 46 46 16
3 35 7 41 9 7 1 23 12 36 24 13 12 31 22 40 22 9 0 17 7 17 15 0 8 5 15 10 15
21 0 50 41 50 70 0 22 5 30 18 30 10 0 24 9 32 20 8 11 22 20 31 20 9 0 16 8
16 17 0 41 4 54 13 48 13 -8 35 14 45 45 8 27 45 83 57 88 4 2 8 12 8 23 0 12
7 19 20 19 18 0 25 10 21 33 0 4 17 7 39 7 35 0 40 3 40 24 0 26 76 96 105 96
9 0 23 7 32 15 8 9 29 19 45 22 16 3 33 14 39 24 5 11 15 19 22 19 7 0 28 16
47 35 19 19 41 35 49 35 8 0 23 8 33 17 16 14 21 15 27 4 6 -9 14 -10 22 -5 8
5 16 9 19 10 20 4 39 18 34 25 -10 17 7 49 27 49 10 0 24 9 31 20 7 11 18 20
24 20 7 0 14 8 16 18 3 10 23 24 48 32 24 8 45 22 47 31 4 13 14 15 51 11 26
-2 51 -8 55 -12 4 -4 3 -45 -3 -91 -5 -46 -10 -116 -10 -155 0 -56 -3 -73 -16
-78 -9 -3 -14 -15 -12 -28 2 -15 -2 -22 -10 -20 -8 1 -11 -2 -7 -7 3 -6 -2
-23 -12 -38 -10 -14 -16 -37 -15 -50 2 -13 -6 -38 -17 -57 -15 -24 -21 -50
-21 -92 0 -37 -4 -54 -9 -45 -10 15 -13 11 -31 -46 -7 -23 -17 -40 -21 -37 -5
3 -9 -2 -9 -10 0 -9 7 -16 15 -16 19 0 20 -28 1 -49 -7 -9 -16 -35 -20 -59 -5
-33 -3 -44 9 -48 8 -4 15 -12 15 -20 0 -8 9 -14 20 -14 13 0 20 -7 20 -20 0
-22 35 -28 43 -7 3 7 6 5 6 -5 1 -10 -5 -19 -11 -19 -7 -1 -22 -3 -33 -4 -71
-6 -72 -7 -36 -15 40 -10 91 6 91 27 0 12 3 13 14 4 14 -12 46 -5 46 10 0 5
14 9 30 9 19 0 33 6 37 16 4 11 8 12 13 4 10 -16 76 -15 95 0 15 13 16 94 1
118 -4 7 -31 24 -59 39 -49 24 -67 39 -67 56 0 15 37 6 100 -25 69 -35 102
-66 120 -111 5 -15 15 -39 20 -55 23 -60 143 -154 173 -135 7 4 44 11 82 14
62 6 80 3 155 -22 85 -30 129 -54 185 -103 30 -26 95 -37 95 -16 0 5 19 22 42
37 24 16 90 67 147 116 57 48 110 87 116 87 7 0 35 15 61 33 62 42 114 57 196
57 131 0 209 -44 269 -150 l24 -42 86 4 c81 4 90 6 123 36 46 40 71 47 176 47
83 0 86 -1 155 -44 39 -24 92 -55 118 -69 26 -13 56 -36 65 -50 9 -15 35 -42
57 -62 61 -54 99 -92 123 -124 l22 -29 0 1517 0 1516 -22 -1 c-22 0 -22 -1 -3
-9 26 -11 -2 -12 -30 -1 -28 11 -61 -13 -69 -51 -5 -24 -10 -29 -26 -25 -21 5
-45 -16 -35 -33 3 -6 -3 -10 -15 -10 -13 0 -24 -10 -31 -26 -9 -26 -10 -26
-24 -8 -12 16 -16 16 -24 5 -5 -7 -14 -10 -20 -7 -6 4 -11 2 -11 -4 0 -6 -4
-9 -9 -6 -5 3 -14 -1 -21 -9 -7 -8 -23 -15 -36 -15 -13 0 -24 -4 -24 -10 0 -5
-7 -10 -15 -10 -8 0 -15 -6 -16 -12 0 -7 -2 -25 -3 -40 -1 -17 3 -28 11 -28 7
0 13 -7 13 -15 0 -17 -16 -20 -25 -5 -4 6 -12 10 -18 9 -28 -3 -36 3 -40 29
-4 26 -5 26 -12 5 -4 -12 -17 -25 -29 -29 -34 -10 -126 -56 -126 -63 0 -3 -20
-15 -44 -25 -33 -15 -42 -24 -38 -38 4 -15 0 -17 -27 -12 -28 6 -31 4 -25 -12
4 -11 4 -16 -1 -12 -14 13 -45 -12 -45 -37 0 -17 -6 -25 -17 -26 -10 0 -30 -2
-46 -4 -15 -2 -25 0 -23 4 3 4 -4 7 -14 8 -13 1 -17 -3 -13 -14 4 -10 2 -14
-4 -10 -5 4 -19 0 -29 -8 -10 -7 -29 -11 -40 -9 -17 4 -23 0 -28 -20 -4 -16
-13 -26 -24 -26 -29 0 -122 -50 -122 -66 0 -7 11 -16 25 -20 14 -3 22 -11 19
-16 -6 -9 -31 -6 -68 8 -12 4 -16 0 -16 -15 0 -14 6 -21 20 -21 28 0 25 -25
-2 -27 -86 -8 -107 -11 -117 -17 -6 -4 -11 -4 -11 0 0 3 -11 -1 -24 -10 -14
-8 -26 -11 -28 -6 -4 12 -48 1 -48 -12 0 -5 4 -6 10 -3 5 3 17 2 26 -3 12 -6
8 -9 -15 -9 -19 0 -39 -8 -52 -21 -11 -12 -29 -22 -41 -22 -15 0 -19 -5 -15
-19 3 -11 -5 -29 -19 -44 -27 -29 -30 -43 -11 -51 6 -4 2 -4 -10 -2 -24 4 -66
-20 -58 -34 3 -5 1 -11 -4 -14 -14 -9 -41 4 -41 20 0 8 -4 14 -9 14 -15 0 -23
-18 -11 -25 5 -3 10 -10 10 -16 0 -13 -27 -12 -32 2 -5 14 -38 0 -38 -17 0
-18 37 -18 72 0 26 14 38 12 38 -6 0 -4 -6 -8 -14 -8 -8 0 -22 -8 -31 -17 -14
-13 -23 -15 -45 -6 -25 9 -29 8 -34 -10 -3 -12 0 -24 5 -28 8 -5 8 -9 0 -13
-19 -12 -32 3 -20 25 14 27 -6 51 -40 47 -18 -2 -26 -9 -25 -20 1 -10 -3 -18
-8 -18 -12 0 -48 -39 -48 -52 0 -4 -6 -8 -13 -8 -8 0 -22 -9 -32 -20 -10 -11
-24 -20 -32 -20 -9 0 -13 -7 -11 -17 3 -12 12 -17 26 -16 13 2 22 -3 22 -11 0
-9 -8 -12 -25 -8 -21 4 -25 1 -25 -21 0 -17 -7 -27 -22 -31 -18 -5 -20 -8 -9
-15 11 -7 10 -13 -8 -32 -11 -12 -21 -29 -21 -36 0 -16 -26 -17 -36 -2 -3 6
-1 16 5 22 13 13 15 37 2 37 -4 0 -24 -11 -43 -24 -24 -16 -40 -21 -49 -15 -8
5 -23 9 -34 9 -17 0 -15 -3 7 -14 15 -8 35 -16 45 -19 12 -3 10 -5 -8 -6 -14
0 -35 -10 -47 -22 -13 -11 -34 -22 -47 -23 -14 -1 -33 -11 -44 -20 -19 -17
-20 -17 -24 6 l-4 23 -8 -22 c-4 -13 -14 -23 -21 -23 -8 0 -14 -7 -14 -16 0
-21 -25 -44 -58 -54 -27 -8 -27 -9 -4 -16 19 -5 22 -12 18 -30 -5 -17 -2 -24
8 -24 26 0 26 -17 0 -46 l-25 -29 4 52 c2 38 -1 54 -11 58 -10 3 -12 0 -8 -10
3 -10 -1 -18 -12 -22 -32 -11 -52 -36 -52 -64 0 -34 -19 -48 -35 -26 -7 10
-24 17 -39 17 -22 0 -26 4 -21 23 3 12 14 74 26 137 11 63 25 135 30 160 5 25
14 68 18 95 21 119 37 165 60 165 9 0 36 14 61 30 25 17 82 53 127 81 l81 49
129 -15 c264 -32 242 -32 293 10 25 21 60 45 78 53 17 9 32 19 32 23 0 5 16
16 36 25 19 9 48 30 64 45 28 28 28 29 7 34 -53 11 -231 34 -337 44 -63 6
-141 14 -173 17 l-58 6 41 26 c43 29 54 62 19 62 -28 0 -110 -19 -131 -31 -28
-14 -57 -11 -80 10 -19 19 -20 24 -10 93 6 40 18 96 26 123 8 28 20 71 27 98
6 26 14 47 18 47 10 0 141 -140 141 -151 0 -5 7 -9 15 -9 8 0 15 9 15 20 0 11
7 20 15 20 10 0 15 10 15 28 0 15 9 41 19 58 12 20 16 36 10 45 -5 8 -9 28 -9
45 0 36 -40 78 -84 88 -38 9 -86 43 -86 61 0 7 12 20 26 30 14 9 33 24 43 33
70 67 122 99 142 86 5 -3 9 -15 9 -28 0 -12 3 -26 7 -30 9 -9 11 -31 13 -193
1 -79 5 -143 10 -143 4 0 13 6 20 14 6 8 21 16 33 18 12 2 21 9 20 16 -2 6 2
12 8 12 20 0 42 74 41 135 -1 38 1 55 7 46 5 -8 8 34 7 107 -1 110 -3 122 -24
145 -18 19 -31 23 -70 21 -53 -2 -102 -19 -102 -34 0 -5 -4 -10 -9 -10 -4 0
-38 -17 -75 -37 -44 -25 -69 -45 -72 -60 -6 -21 -20 -28 -41 -20 -5 1 -7 15
-5 30 2 16 -2 35 -9 43 -6 8 -7 14 -2 14 6 0 13 16 16 36 7 39 32 74 54 74 7
0 13 8 13 19 0 10 6 41 14 67 8 27 20 75 27 107 7 32 16 60 21 63 4 3 8 16 8
30 0 35 30 177 40 189 5 6 11 42 15 80 4 39 8 77 10 85 9 58 19 97 27 107 10
12 19 66 20 116 1 15 4 27 8 27 4 0 10 19 14 43 4 23 16 61 27 84 16 32 18 46
10 62 -8 14 -8 22 0 26 6 4 9 21 8 39 -2 17 1 37 5 45 5 7 10 66 12 130 2 64
6 180 8 258 4 104 2 145 -7 150 -7 5 -19 17 -27 27 -13 18 -13 19 0 11 12 -6
13 -5 3 6 -7 7 -13 23 -13 36 0 13 -4 23 -10 23 -5 0 -10 9 -10 19 0 11 -4 22
-9 25 -5 3 -11 20 -14 38 -3 18 -9 49 -15 68 -5 20 -6 60 -2 90 4 32 3 58 -2
61 -6 4 -15 17 -22 30 -6 13 -21 28 -34 34 -12 5 -22 13 -22 18 0 4 -4 6 -9 2
-6 -3 -15 4 -21 15 -9 16 -8 20 7 20 15 0 15 1 -2 14 -11 8 -25 12 -31 9 -7
-2 -18 6 -25 19 -13 24 -34 45 -72 72 -22 15 -22 15 11 15 19 1 31 5 27 11 -3
6 -19 10 -35 10 -28 0 -60 22 -60 41 0 5 -9 9 -20 9 -13 0 -20 7 -20 20 0 21
24 28 35 10 3 -5 24 -8 45 -7 41 2 41 3 40 54 0 7 -16 7 -84 0 -28 -3 -31 19
-4 27 22 6 22 7 5 20 -30 23 -124 30 -152 12 -13 -9 -38 -16 -55 -16 -19 0
-29 -4 -25 -10 4 -6 2 -17 -5 -25 -9 -11 -7 -12 7 -9 10 3 27 -1 37 -9 18 -13
17 -14 -12 -9 -31 4 -39 -5 -33 -40 2 -12 -17 -10 -24 2 -7 11 -78 14 -89 3
-10 -10 -166 -11 -166 -1 0 4 32 8 70 8 39 0 70 3 70 8 0 4 18 7 39 7 49 0 50
2 55 51 1 21 6 47 11 57 4 10 5 20 2 24 -4 3 3 23 14 45 l20 40 -28 24 c-27
23 -43 33 -156 92 -26 14 -65 42 -85 62 -20 21 -48 40 -62 44 -19 6 -21 5 -10
-3 16 -12 9 -14 -30 -11 -14 1 -33 10 -43 21 -10 10 -25 19 -33 19 -19 0 -94
38 -94 48 0 12 -56 42 -79 42 -13 0 -19 5 -15 14 6 15 -23 26 -69 26 -58 0
-188 71 -180 97 3 7 -13 16 -34 22 -49 14 -66 14 -57 0z m172 -173 c5 -3 12 1
16 9 3 8 10 15 15 15 16 0 1 -29 -18 -35 -16 -5 -91 19 -91 29 0 5 65 -10 78
-18z m-388 -16 c0 -14 -31 -20 -51 -10 -26 14 -24 16 16 17 19 1 35 -3 35 -7z
m-368 -23 c-9 -11 -18 -14 -20 -8 -2 7 -18 9 -43 5 -21 -4 -39 -4 -39 0 0 11
44 23 82 22 35 -1 36 -1 20 -19z m238 -7 c0 -5 -8 -10 -17 -10 -15 0 -16 2 -3
10 19 12 20 12 20 0z m65 -20 c-7 -11 -71 -40 -88 -40 -20 0 9 21 49 35 48 17
47 17 39 5z m239 -36 c7 -17 -46 -74 -69 -74 -7 0 -28 -13 -46 -30 -19 -16
-47 -32 -64 -36 -16 -4 -35 -14 -42 -23 -6 -9 -15 -13 -19 -8 -4 4 -2 7 4 7 7
0 12 4 12 9 0 6 -13 6 -32 0 -18 -6 -37 -11 -43 -12 -5 -2 -16 -6 -23 -11 -7
-4 -29 -9 -50 -12 -20 -2 -53 -6 -72 -9 -33 -5 -34 -5 -16 10 11 8 28 15 37
15 10 0 20 4 23 9 3 5 18 12 33 16 16 3 36 14 46 23 19 17 129 59 187 72 19 4
29 8 22 9 -20 2 8 26 49 45 45 19 56 19 63 0z m351 -14 c10 -11 14 -20 9 -20
-5 0 -15 9 -22 20 -7 11 -11 20 -9 20 2 0 12 -9 22 -20z m218 -32 c-3 -18 -14
-54 -23 -79 -10 -27 -14 -53 -9 -61 4 -7 2 -27 -5 -43 -8 -17 -19 -61 -26
-100 -9 -49 -20 -77 -37 -94 l-24 -25 5 30 c18 98 48 220 56 228 6 6 10 20 10
33 0 13 5 23 10 23 7 0 7 7 -1 21 -9 17 -7 29 7 60 24 49 46 52 37 7z m87 -18
c0 -5 -2 -10 -4 -10 -3 0 -8 5 -11 10 -3 6 -1 10 4 10 6 0 11 -4 11 -10z
m-1180 -9 c0 -5 -7 -14 -15 -21 -16 -14 -18 -10 -9 14 6 17 24 22 24 7z m186
-16 c-16 -17 -30 -20 -21 -6 3 5 -3 12 -12 14 -10 3 -3 5 15 6 30 1 32 -1 18
-14z m850 -34 c-4 -6 -14 -7 -23 -4 -15 6 -14 7 3 13 22 9 29 6 20 -9z m-776
-61 c0 -5 -4 -10 -10 -10 -5 0 -10 5 -10 10 0 6 5 10 10 10 6 0 10 -4 10 -10z
m-237 -17 c-7 -2 -19 -2 -25 0 -7 3 -2 5 12 5 14 0 19 -2 13 -5z m-388 -13
c-3 -5 -12 -10 -18 -10 -7 0 -6 4 3 10 19 12 23 12 15 0z m565 -45 c-17 -20
-69 -45 -74 -36 -3 4 14 17 37 29 50 26 53 26 37 7z m-570 2 c0 -8 -38 -47
-45 -47 -5 0 2 11 15 25 22 24 30 29 30 22z m197 -3 c-3 -3 -12 -4 -19 -1 -8
3 -5 6 6 6 11 1 17 -2 13 -5z m-51 -40 c-30 -21 -44 -16 -17 7 13 11 27 17 30
13 3 -3 -3 -12 -13 -20z m757 -38 c-15 -30 -30 -53 -35 -50 -10 6 39 104 52
104 5 0 -2 -25 -17 -54z m678 -43 c19 -9 28 -18 20 -21 -15 -5 -61 17 -61 30
0 11 2 11 41 -9z m-786 -23 c-3 -5 -12 -10 -18 -10 -7 0 -6 4 3 10 19 12 23
12 15 0z m215 -70 c0 -5 -4 -10 -10 -10 -5 0 -10 5 -10 10 0 6 5 10 10 10 6 0
10 -4 10 -10z m-470 -4 c0 -2 -7 -7 -16 -10 -8 -3 -12 -2 -9 4 6 10 25 14 25
6z m-110 -41 c-7 -8 -20 -15 -29 -15 -13 1 -13 3 3 15 26 19 42 19 26 0z m527
-26 c-15 -24 -27 -24 -27 -1 0 24 8 32 26 25 10 -4 11 -9 1 -24z m-403 9 c-5
-14 -146 -98 -164 -98 -27 0 -2 20 78 63 48 25 88 46 89 47 1 0 0 -6 -3 -12z
m236 -87 c0 -5 -9 -11 -21 -14 -16 -4 -18 -3 -8 9 13 16 29 19 29 5z m-755
-56 c-10 -19 -20 -33 -23 -31 -3 3 1 12 8 21 7 8 9 15 6 15 -4 0 -2 9 4 21 19
35 23 13 5 -26z m-195 -16 c0 -10 -4 -19 -10 -19 -5 0 -7 7 -4 15 4 8 1 15 -6
15 -6 0 -8 5 -5 10 9 15 25 2 25 -21z m730 19 c28 0 31 -2 15 -8 -11 -5 -14
-9 -7 -9 21 -2 13 -27 -13 -39 -32 -15 -92 -16 -100 -2 -4 6 8 11 29 11 20 1
41 3 46 4 6 1 15 3 20 4 6 0 10 6 10 11 0 14 -83 13 -115 -2 -14 -6 -25 -17
-25 -24 0 -21 -39 -28 -59 -10 -10 9 -21 14 -24 11 -4 -3 -1 2 6 11 8 8 28 16
45 16 18 1 32 5 32 9 0 13 62 28 85 22 11 -3 36 -6 55 -5z m-581 -109 c-9 -18
-9 -21 4 -16 11 4 13 0 9 -15 -3 -14 -7 -16 -12 -7 -6 9 -12 9 -24 -4 -9 -8
-16 -20 -16 -25 0 -5 -9 -17 -20 -27 -26 -23 -25 -14 2 57 16 40 28 58 40 58
10 0 18 6 19 13 0 9 2 9 5 0 3 -7 0 -22 -7 -34z m1693 21 l22 -20 -27 0 c-20
0 -27 5 -27 20 0 11 2 20 5 20 3 0 15 -9 27 -20z m-1202 -30 c-8 -5 -31 -9
-50 -9 -29 0 -31 2 -15 9 11 5 34 9 50 9 23 1 26 -2 15 -9z m-260 -90 c-8 -5
-22 -9 -30 -9 -10 0 -8 3 5 9 27 12 43 12 25 0z m80 -14 c0 -2 -7 -6 -15 -10
-8 -3 -15 -1 -15 4 0 6 7 10 15 10 8 0 15 -2 15 -4z m-797 -140 c9 -22 -4 -56
-20 -56 -11 0 -14 6 -9 23 3 12 6 28 6 35 0 16 17 15 23 -2z m-153 -52 c0 -11
-21 -44 -28 -44 -4 0 -8 11 -8 25 -2 18 3 25 17 25 10 0 19 -3 19 -6z m55 -74
c4 -6 -6 -10 -22 -10 -22 0 -25 2 -13 10 19 12 27 12 35 0z m330 -100 c3 -5 1
-10 -5 -10 -6 0 -18 -7 -26 -15 -8 -8 -21 -12 -29 -9 -8 4 -15 1 -15 -5 0 -8
-6 -9 -17 -3 -10 5 -30 7 -45 6 -16 -2 -28 1 -28 7 0 5 21 9 46 9 27 0 51 6
60 15 18 17 50 20 59 5z m1733 -75 c6 -22 10 -72 10 -112 -1 -69 -2 -72 -27
-77 -72 -14 -155 -9 -228 15 -18 6 -39 7 -45 2 -23 -14 -46 -13 -58 2 -10 12
-16 13 -26 4 -14 -11 -15 -10 -18 21 -1 6 4 10 9 11 22 2 45 21 45 36 0 20 37
54 90 84 22 12 40 27 40 31 0 5 9 4 19 -1 14 -8 20 -7 24 3 4 9 14 12 26 9 12
-3 37 2 56 11 19 10 40 14 45 11 6 -4 7 1 4 12 -5 15 -4 15 9 -2 8 -11 20 -38
25 -60z m-1938 45 c-27 -21 -45 -26 -35 -9 6 9 41 27 55 28 3 0 -6 -8 -20 -19z
m-351 -22 c-1 -22 -3 -26 -6 -13 -3 11 -10 26 -15 33 -8 9 -6 12 6 12 12 0 16
-9 15 -32z m2808 -8 c-1 -22 -8 -45 -15 -52 -9 -9 -12 -3 -12 28 0 33 13 64
27 64 1 0 1 -18 0 -40z m-2427 -20 c-12 -23 -40 -27 -40 -6 0 13 14 21 43 25
4 0 3 -8 -3 -19z m480 -85 c0 -9 -9 -15 -21 -15 -18 0 -19 2 -9 15 7 8 16 15
21 15 5 0 9 -7 9 -15z m1000 -46 c0 -19 -5 -29 -15 -29 -10 0 -15 11 -15 35 0
26 3 33 15 29 9 -4 15 -19 15 -35z m-1557 11 c3 -11 1 -20 -4 -20 -5 0 -9 9
-9 20 0 11 2 20 4 20 2 0 6 -9 9 -20z m4 -52 c-3 -8 -6 -5 -6 6 -1 11 2 17 5
13 3 -3 4 -12 1 -19z m1383 -68 c0 -5 -2 -10 -4 -10 -3 0 -8 5 -11 10 -3 6 -1
10 4 10 6 0 11 -4 11 -10z m597 -216 c-3 -3 -12 -4 -19 -1 -8 3 -5 6 6 6 11 1
17 -2 13 -5z m51 -24 c9 -15 9 -20 0 -20 -6 0 -8 -3 -5 -6 4 -4 13 -1 21 5 20
17 30 -16 31 -101 l0 -68 -35 4 c-101 11 -218 44 -205 58 3 3 1 17 -5 32 -9
23 -6 30 17 52 18 17 37 24 64 24 21 0 42 6 46 14 8 13 28 24 48 25 6 1 16 -8
23 -19z m387 -10 c3 -5 1 -10 -4 -10 -6 0 -11 5 -11 10 0 6 2 10 4 10 3 0 8
-4 11 -10z m-2022 -42 c26 -10 37 -28 17 -28 -5 0 -10 5 -10 11 0 5 -5 7 -12
3 -15 -10 -114 -5 -141 6 -18 8 -14 9 20 8 23 -1 45 1 49 4 9 9 45 7 77 -4z
m26 -69 c58 -20 25 -45 -41 -30 -20 5 -40 6 -44 2 -4 -3 -4 -1 -1 5 8 14 -45
26 -79 18 -15 -4 -24 -2 -24 5 0 15 146 15 189 0z m226 -120 c4 -6 -11 -1 -33
10 -22 11 -44 26 -47 32 -4 6 11 1 33 -10 22 -11 44 -26 47 -32z m1357 34 c21
-9 37 -22 37 -27 -3 -27 2 -36 21 -36 11 0 20 -4 20 -10 0 -5 -2 -10 -4 -10
-2 0 -27 -5 -56 -10 -48 -9 -57 -8 -87 12 -18 13 -33 30 -33 39 0 9 -9 19 -20
22 -27 7 -25 25 3 30 47 9 82 6 119 -10z m-1535 -121 c-19 -19 -41 -32 -48
-30 -10 3 -7 10 10 24 12 10 27 30 32 43 8 19 12 21 25 10 13 -11 11 -17 -19
-47z m-82 -42 c-28 -12 -37 -12 -30 0 3 6 16 10 28 9 21 0 21 -1 2 -9z m-435
-50 c0 -5 -5 -10 -11 -10 -5 0 -7 5 -4 10 3 6 8 10 11 10 2 0 4 -4 4 -10z
m1833 -54 c12 -8 52 -20 90 -27 76 -14 92 -34 20 -23 -62 9 -135 36 -141 52
-5 16 3 15 31 -2z m-1403 -171 c11 -13 8 -15 -14 -15 -16 0 -26 5 -26 15 0 8
6 15 14 15 7 0 19 -7 26 -15z m513 -322 c3 -21 8 -51 12 -68 l7 -30 -24 28
c-16 20 -36 30 -66 34 -48 6 -58 20 -12 17 17 -1 30 2 30 7 0 4 7 6 15 3 11
-5 15 1 15 20 0 40 17 31 23 -11z m297 -57 c0 -2 -7 -7 -16 -10 -8 -3 -12 -2
-9 4 6 10 25 14 25 6z m-248 -118 c-4 -3 -26 -10 -50 -15 -44 -8 -49 -13 -83
-85 -16 -35 -35 -36 -42 -1 -4 22 3 34 41 68 39 35 50 40 64 31 14 -8 22 -6
40 11 16 17 24 19 30 10 4 -6 4 -15 0 -19z m1750 -424 c-2 -19 -8 -34 -13 -34
-11 0 -11 25 -2 71 8 43 21 13 15 -37z m1933 46 c3 -5 1 -10 -4 -10 -6 0 -11
5 -11 10 0 6 2 10 4 10 3 0 8 -4 11 -10z m-1595 -90 c0 -5 -5 -10 -11 -10 -5
0 -7 5 -4 10 3 6 8 10 11 10 2 0 4 -4 4 -10z m1130 -204 c0 -3 -4 -8 -10 -11
-5 -3 -10 -1 -10 4 0 6 5 11 10 11 6 0 10 -2 10 -4z m-115 -116 c4 -6 -10 -10
-37 -9 -40 1 -41 2 -13 9 43 11 43 11 50 0z m-480 -250 c3 -5 -1 -10 -9 -10
-8 0 -18 5 -21 10 -3 6 1 10 9 10 8 0 18 -4 21 -10z m-196 -111 c-25 -16 -32
-9 -13 12 12 13 20 16 22 9 3 -7 -2 -16 -9 -21z m-119 -139 c0 -5 -4 -10 -10
-10 -5 0 -10 5 -10 10 0 6 5 10 10 10 6 0 10 -4 10 -10z m-183 -65 c-8 -19
-47 -20 -47 -1 0 8 10 16 23 18 28 5 31 3 24 -17z m-17 -100 c0 -8 -7 -15 -15
-15 -8 0 -15 7 -15 15 0 8 7 15 15 15 8 0 15 -7 15 -15z m34 -41 c5 -14 4 -15
-9 -4 -17 14 -19 20 -6 20 5 0 12 -7 15 -16z m-187 -60 c-3 -3 -12 -4 -19 -1
-8 3 -5 6 6 6 11 1 17 -2 13 -5z m-32 -125 c-3 -4 -12 -6 -20 -3 -8 4 -13 10
-10 15 3 4 12 6 20 3 8 -4 13 -10 10 -15z m160 -9 c3 -6 -5 -10 -19 -10 -14 0
-28 -4 -31 -10 -9 -15 -25 -12 -25 4 0 23 62 37 75 16z m-278 -66 c1 -20 1
-34 -1 -33 -1 2 -13 19 -25 37 l-22 32 23 0 c19 0 23 -6 25 -36z m77 11 c3 -8
1 -15 -4 -15 -6 0 -10 7 -10 15 0 8 2 15 4 15 2 0 6 -7 10 -15z m-147 -43
c-18 -4 -18 -4 0 -17 14 -11 15 -16 6 -26 -10 -10 -14 -6 -23 15 -17 46 -14
59 13 44 20 -11 20 -13 4 -16z m-112 -2 c3 -5 1 -10 -4 -10 -6 0 -11 5 -11 10
0 6 2 10 4 10 3 0 8 -4 11 -10z m164 -56 c-15 -18 -22 -13 -13 10 3 9 10 13
16 10 5 -3 4 -12 -3 -20z m-269 -64 c0 -5 -11 -10 -25 -10 -14 0 -25 5 -25 10
0 6 11 10 25 10 14 0 25 -4 25 -10z m-127 -9 c4 -1 7 -5 7 -10 0 -8 -16 -8
-72 -2 -5 1 -8 5 -8 9 0 6 38 8 73 3z m227 -31 c0 -5 -4 -10 -10 -10 -5 0 -10
5 -10 10 0 6 5 10 10 10 6 0 10 -4 10 -10z m-150 -35 c0 -19 -27 -55 -42 -55
-10 0 -18 2 -18 4 0 2 -3 11 -6 20 -4 11 0 16 14 16 12 0 24 5 27 10 6 10 25
14 25 5z m-146 -69 c-3 -15 -8 -25 -11 -23 -2 3 -1 17 3 31 3 15 8 25 11 23 2
-3 1 -17 -3 -31z m66 -23 c0 -5 -4 -14 -9 -21 -7 -11 -9 -11 -14 1 -3 8 -3 18
0 21 9 8 23 7 23 -1z m-70 -35 c0 -18 -2 -20 -9 -8 -6 8 -7 18 -5 22 9 14 14
9 14 -14z m285 -9 c4 -6 5 -12 3 -15 -8 -7 -68 8 -68 17 0 13 58 11 65 -2z
m-201 -8 c6 -9 -27 -21 -59 -21 -20 1 -20 1 -1 15 22 17 52 20 60 6z m108 -13
c-7 -7 -12 -8 -12 -2 0 14 12 26 19 19 2 -3 -1 -11 -7 -17z m-92 -33 c-7 -9
-15 -13 -19 -10 -3 3 1 10 9 15 21 14 24 12 10 -5z m165 -5 c3 -5 1 -10 -4
-10 -6 0 -11 5 -11 10 0 6 2 10 4 10 3 0 8 -4 11 -10z m-150 -40 c-3 -5 -12
-7 -20 -3 -21 7 -19 13 6 13 11 0 18 -4 14 -10z m-91 -95 c17 -13 18 -15 3
-15 -9 0 -17 5 -17 11 0 5 -4 7 -10 4 -5 -3 -10 -1 -10 4 0 15 11 13 34 -4z
m-2130 -14 c3 -5 -1 -11 -9 -15 -15 -6 -29 7 -18 18 9 9 21 8 27 -3z m2221
-11 c-3 -5 -12 -10 -18 -10 -7 0 -6 4 3 10 19 12 23 12 15 0z m-27 -28 c2 -7
-6 -12 -17 -12 -21 0 -27 11 -14 24 9 9 26 2 31 -12z m76 -27 c7 -19 -3 -19
-28 0 -19 15 -19 15 1 15 11 0 23 -7 27 -15z m-179 -25 c-3 -5 -11 -10 -16
-10 -6 0 -7 5 -4 10 3 6 11 10 16 10 6 0 7 -4 4 -10z m275 -10 c0 -5 -7 -10
-16 -10 -8 0 -12 5 -9 10 3 6 10 10 16 10 5 0 9 -4 9 -10z m-271 -104 c-2 -2
-15 -7 -29 -10 l-25 -7 25 15 c21 12 42 14 29 2z m-1674 -506 c-3 -5 -13 -10
-21 -10 -8 0 -14 5 -14 10 0 6 9 10 21 10 11 0 17 -4 14 -10z m-1235 -180 c0
-5 -4 -10 -10 -10 -5 0 -10 5 -10 10 0 6 5 10 10 10 6 0 10 -4 10 -10z m-10
-55 c0 -8 -7 -15 -15 -15 -26 0 -18 20 13 29 1 1 2 -6 2 -14z m-10 -54 c0 -12
-20 -25 -27 -18 -7 7 6 27 18 27 5 0 9 -4 9 -9z m-15 -78 c-9 -55 -14 -65 -25
-58 -8 5 -7 11 1 21 6 7 9 21 5 29 -7 18 2 45 16 45 5 0 6 -16 3 -37z m-8
-108 c-4 -8 -11 -15 -17 -15 -14 0 -13 27 3 33 16 6 21 1 14 -18z m1 -47 c-6
-18 -28 -21 -28 -4 0 9 7 16 16 16 9 0 14 -5 12 -12z m2 -67 c0 -5 -7 -11 -15
-15 -15 -5 -20 5 -8 17 9 10 23 9 23 -2z m-2 -63 c-6 -18 -28 -21 -28 -4 0 9
7 16 16 16 9 0 14 -5 12 -12z"/>
<path d="M6980 8340 c0 -5 5 -10 10 -10 6 0 10 5 10 10 0 6 -4 10 -10 10 -5 0
-10 -4 -10 -10z"/>
<path d="M6498 10583 c7 -3 16 -2 19 1 4 3 -2 6 -13 5 -11 0 -14 -3 -6 -6z"/>
<path d="M6132 10508 c3 -7 26 -17 52 -22 38 -8 50 -7 62 6 11 11 12 18 5 22
-6 4 -11 2 -11 -3 0 -12 -53 -15 -64 -4 -13 13 -48 14 -44 1z"/>
<path d="M6947 10359 c7 -7 15 -10 18 -7 3 3 -2 9 -12 12 -14 6 -15 5 -6 -5z"/>
<path d="M6975 10330 c-3 -5 -1 -10 4 -10 6 0 11 5 11 10 0 6 -2 10 -4 10 -3
0 -8 -4 -11 -10z"/>
<path d="M5133 10108 c-25 -32 -26 -40 -4 -26 22 13 36 38 22 38 -5 0 -13 -6
-18 -12z"/>
<path d="M5023 10033 c-41 -43 -52 -63 -35 -63 11 1 72 58 72 69 0 5 9 11 21
14 12 3 18 10 14 16 -11 20 -29 11 -72 -36z"/>
<path d="M7486 10051 c-3 -5 1 -12 10 -15 20 -8 29 -1 19 13 -8 13 -22 14 -29
2z"/>
<path d="M5023 9884 c-15 -16 -16 -24 -4 -24 8 0 24 30 19 35 -2 2 -9 -3 -15
-11z"/>
<path d="M5071 9881 c-7 -5 -11 -15 -9 -22 3 -10 8 -7 17 9 13 24 12 26 -8 13z"/>
<path d="M4986 9855 c-3 -9 0 -15 9 -15 16 0 20 16 6 24 -5 3 -11 -1 -15 -9z"/>
<path d="M5290 9840 c-8 -5 -12 -11 -9 -14 3 -3 14 1 25 9 21 16 8 20 -16 5z"/>
<path d="M4964 9798 c-2 -41 6 -47 26 -23 7 8 19 15 27 15 27 0 8 34 -22 40
-30 6 -30 5 -31 -32z"/>
<path d="M4920 9785 c-7 -8 -18 -15 -25 -15 -7 0 -16 -11 -19 -25 -4 -14 -14
-25 -23 -25 -15 0 -15 -1 1 -13 16 -12 16 -14 2 -26 -9 -8 -16 -22 -16 -32 0
-11 -5 -18 -11 -16 -6 1 -18 -8 -26 -20 -10 -15 -11 -23 -4 -23 6 0 11 7 11
16 0 11 5 14 16 10 9 -3 25 1 37 9 12 8 33 15 47 15 16 0 21 3 12 8 -10 7 -9
15 4 40 8 17 23 36 32 42 16 9 16 11 -1 24 -10 8 -15 20 -11 30 8 20 -9 21
-26 1z"/>
<path d="M5110 9749 c0 -5 5 -7 10 -4 6 3 10 8 10 11 0 2 -4 4 -10 4 -5 0 -10
-5 -10 -11z"/>
<path d="M5028 9685 c-7 -9 -18 -21 -24 -28 -6 -7 -9 -18 -8 -25 1 -7 0 -8 -3
-2 -5 10 -33 14 -33 4 0 -3 8 -16 18 -28 l17 -24 28 20 c37 26 60 71 44 87
-15 15 -24 14 -39 -4z"/>
<path d="M4905 9609 c-4 -5 -4 -22 0 -37 l7 -27 9 23 c11 28 34 24 34 -6 0
-24 8 -27 33 -13 16 10 16 10 0 11 -10 0 -20 11 -24 25 -4 14 -9 24 -12 21 -2
-3 -13 -1 -23 4 -12 7 -20 7 -24 -1z"/>
<path d="M5071 9596 c-7 -8 -8 -17 -3 -20 6 -3 12 3 15 14 6 24 4 25 -12 6z"/>
<path d="M4877 9543 c-4 -3 -7 -20 -7 -37 l1 -31 14 25 c21 38 16 67 -8 43z"/>
<path d="M4690 9504 c0 -10 -5 -14 -15 -10 -13 4 -14 2 -5 -14 6 -11 8 -26 5
-33 -4 -6 3 -1 14 13 22 26 28 60 11 60 -5 0 -10 -7 -10 -16z"/>
<path d="M4920 9486 c-8 -10 -8 -21 -2 -32 10 -18 20 -9 27 26 5 23 -7 26 -25
6z"/>
<path d="M4801 9443 c-12 -16 -24 -32 -29 -38 -15 -19 -21 -45 -11 -45 7 0 9
-10 5 -25 -9 -35 10 -31 23 5 6 19 17 30 29 30 25 0 34 23 22 56 -6 14 -8 30
-4 35 13 22 -17 6 -35 -18z"/>
<path d="M4725 9279 c-12 -19 5 -23 22 -6 16 16 16 17 1 17 -9 0 -20 -5 -23
-11z"/>
<path d="M6320 8829 c0 -5 5 -7 10 -4 6 3 10 8 10 11 0 2 -4 4 -10 4 -5 0 -10
-5 -10 -11z"/>
<path d="M5890 8393 c0 -5 5 -15 10 -23 8 -12 10 -11 10 8 0 12 -4 22 -10 22
-5 0 -10 -3 -10 -7z"/>
<path d="M5686 7744 c-12 -31 3 -34 22 -4 10 16 10 20 -2 20 -8 0 -17 -7 -20
-16z"/>
<path d="M4367 7702 c-19 -20 -13 -32 14 -32 10 0 28 -15 40 -32 31 -44 88
-102 95 -96 6 7 8 40 6 99 -2 44 -3 45 -49 62 -61 22 -86 21 -106 -1z"/>
<path d="M5425 7707 c-4 -10 -5 -21 -1 -24 10 -10 18 4 13 24 -4 17 -4 17 -12
0z"/>
<path d="M4309 7638 c-44 -47 -61 -106 -67 -230 -4 -105 -2 -124 18 -180 41
-112 70 -148 70 -87 0 18 4 59 10 93 5 33 14 88 19 121 5 33 15 74 22 90 7 17
12 35 11 40 -1 6 8 21 19 35 l20 25 -7 -30 c-4 -16 -13 -43 -22 -59 -8 -16
-16 -43 -18 -60 -6 -61 -14 -102 -24 -136 -6 -19 -13 -85 -16 -146 l-6 -111
29 -33 30 -33 22 37 c22 34 56 66 73 66 17 0 -18 -90 -43 -110 -3 -3 -8 -15
-11 -27 -5 -18 -2 -23 14 -23 10 0 28 5 39 11 16 8 20 7 18 -3 -1 -7 -1 -36 0
-65 1 -56 18 -83 53 -83 19 0 20 4 14 63 -3 34 -10 145 -15 247 -14 272 -30
418 -49 449 -9 14 -31 42 -50 61 -108 113 -115 117 -153 78z"/>
<path d="M7620 7530 c0 -39 15 -39 16 0 1 17 -3 30 -7 30 -5 0 -9 -13 -9 -30z"/>
<path d="M7608 7483 c7 -3 16 -2 19 1 4 3 -2 6 -13 5 -11 0 -14 -3 -6 -6z"/>
<path d="M7557 7427 c-3 -8 -1 -20 4 -28 11 -19 32 2 23 24 -7 20 -20 22 -27
4z"/>
<path d="M7448 7313 c7 -3 16 -2 19 1 4 3 -2 6 -13 5 -11 0 -14 -3 -6 -6z"/>
<path d="M5650 6942 c-8 -3 -19 -11 -25 -18 -5 -7 -35 -26 -65 -41 -30 -16
-68 -37 -84 -48 -19 -13 -49 -20 -84 -21 -39 -1 -58 -7 -64 -18 -9 -16 -32
-16 -70 -1 -14 6 -18 2 -18 -15 0 -12 -11 -35 -25 -51 -13 -16 -27 -45 -31
-64 -3 -19 -10 -35 -15 -35 -5 0 -9 -13 -9 -30 0 -16 -4 -30 -9 -30 -9 0 -8
-22 3 -62 5 -16 12 -28 17 -28 6 0 9 -36 7 -81 -3 -68 0 -82 15 -90 11 -7 17
-22 17 -48 0 -30 4 -40 20 -44 13 -3 18 -11 14 -20 -6 -16 -4 -16 84 -18 12
-1 22 -5 22 -10 0 -6 9 -5 21 1 11 6 58 12 104 13 71 2 86 5 99 22 11 15 26
19 71 19 38 0 59 -4 65 -14 6 -10 34 -15 92 -17 112 -5 118 -6 118 -18 0 -17
47 -58 58 -51 6 3 12 1 14 -5 2 -6 15 0 28 15 14 14 31 26 38 26 7 0 15 7 19
16 5 12 20 15 72 14 36 -1 71 -1 76 0 6 1 15 3 20 5 6 1 15 3 20 3 17 3 37 61
33 97 -2 18 0 31 5 28 16 -9 57 50 45 65 -6 7 -7 12 -1 12 18 0 34 50 23 70
-9 17 -5 21 31 30 23 6 52 9 64 6 14 -4 32 2 49 15 27 21 36 59 13 59 -6 0
-37 20 -67 45 -38 31 -56 41 -62 32 -6 -9 -8 -9 -8 1 0 16 -7 24 -95 118 -38
41 -73 74 -77 74 -4 0 -24 12 -45 26 -40 27 -58 28 -205 8 -35 -5 -57 -2 -90
13 -97 44 -183 61 -228 45z m-310 -302 c0 -5 -4 -10 -10 -10 -5 0 -10 5 -10
10 0 6 5 10 10 10 6 0 10 -4 10 -10z m820 -40 c0 -5 -9 -6 -20 -3 -11 3 -20 9
-20 13 0 5 9 6 20 3 11 -3 20 -9 20 -13z m-127 -14 c33 6 107 -19 107 -35 0
-13 -38 -23 -107 -28 -49 -3 -63 -1 -63 9 0 19 24 69 28 58 2 -5 18 -6 35 -4z
m280 -207 c-4 -16 -8 -17 -14 -7 -13 19 -11 28 5 28 9 0 12 -7 9 -21z"/>
<path d="M9360 6891 c0 -5 7 -11 14 -14 10 -4 13 -1 9 9 -6 15 -23 19 -23 5z"/>
<path d="M8968 6673 c7 -3 16 -2 19 1 4 3 -2 6 -13 5 -11 0 -14 -3 -6 -6z"/>
<path d="M7805 6652 c-33 -4 -46 -18 -38 -39 8 -20 51 -16 63 8 15 28 10 35
-25 31z"/>
<path d="M6415 6480 c-3 -6 1 -7 9 -4 18 7 21 14 7 14 -6 0 -13 -4 -16 -10z"/>
<path d="M6313 6275 c0 -22 2 -30 4 -17 2 12 2 30 0 40 -3 9 -5 -1 -4 -23z"/>
<path d="M6523 6155 c0 -8 4 -15 9 -15 4 0 8 7 8 15 0 8 -4 15 -8 15 -5 0 -9
-7 -9 -15z"/>
<path d="M8050 6110 c0 -5 5 -10 10 -10 6 0 10 5 10 10 0 6 -4 10 -10 10 -5 0
-10 -4 -10 -10z"/>
<path d="M7796 5931 c-3 -5 -17 -9 -31 -10 -75 -6 -73 -5 -65 -26 4 -12 15
-19 25 -17 10 2 14 -1 10 -7 -3 -6 -1 -11 4 -11 6 0 11 4 11 9 0 4 11 7 25 6
14 -2 25 1 25 6 0 5 -9 9 -20 9 -11 0 -20 5 -20 10 0 6 9 10 20 10 11 0 20 4
20 9 0 5 8 12 18 14 15 4 15 5 0 6 -9 0 -19 -3 -22 -8z"/>
<path d="M7550 5745 c-8 -9 -8 -15 -2 -15 12 0 26 19 19 26 -2 2 -10 -2 -17
-11z"/>
<path d="M6033 5663 c9 -2 23 -2 30 0 6 3 -1 5 -18 5 -16 0 -22 -2 -12 -5z"/>
<path d="M5110 5590 c0 -5 7 -10 16 -10 8 0 12 5 9 10 -3 6 -10 10 -16 10 -5
0 -9 -4 -9 -10z"/>
<path d="M7241 5518 c0 -13 3 -17 6 -10 7 18 33 15 33 -5 0 -9 3 -14 6 -10 12
12 -8 47 -27 47 -13 0 -19 -7 -18 -22z"/>
<path d="M7061 5224 c0 -11 3 -14 6 -6 3 7 2 16 -1 19 -3 4 -6 -2 -5 -13z"/>
<path d="M5751 4464 c0 -11 3 -14 6 -6 3 7 2 16 -1 19 -3 4 -6 -2 -5 -13z"/>
<path d="M6858 4463 c7 -3 16 -2 19 1 4 3 -2 6 -13 5 -11 0 -14 -3 -6 -6z"/>
<path d="M6327 4219 c-5 -18 -8 -19 -27 -9 -16 9 -25 9 -33 1 -8 -8 -5 -11 11
-11 12 0 22 -4 22 -10 0 -15 -47 -12 -53 3 -4 10 -6 10 -6 0 -1 -7 -8 -13 -16
-13 -29 0 -14 -17 16 -18 17 0 36 -5 43 -11 8 -7 22 -4 44 9 25 15 32 27 32
50 0 35 -25 42 -33 9z"/>
<path d="M6168 4132 c-45 -27 -48 -62 -5 -62 42 0 67 12 67 31 0 13 7 19 22
19 22 0 18 12 -6 16 -7 1 -22 4 -32 8 -11 3 -31 -2 -46 -12z m42 -12 c0 -5 -7
-10 -15 -10 -8 0 -15 5 -15 10 0 6 7 10 15 10 8 0 15 -4 15 -10z"/>
<path d="M6100 4038 c0 -32 11 -45 40 -51 14 -3 5 -4 -20 -4 l-45 2 3 -37 c3
-29 0 -38 -12 -38 -17 0 -23 -54 -8 -64 17 -10 65 11 73 32 7 19 5 22 -16 22
-14 0 -25 5 -25 10 0 6 13 10 28 10 23 0 31 7 44 38 29 68 29 82 2 93 -43 16
-64 11 -64 -13z"/>
<path d="M6022 3803 c5 -48 78 -40 78 8 0 16 -8 19 -41 19 -38 0 -40 -1 -37
-27z"/>
<path d="M5990 3727 c0 -33 1 -34 32 -28 29 6 59 34 48 45 -3 2 -22 7 -42 11
-38 7 -38 7 -38 -28z"/>
<path d="M5957 3670 c-9 -35 1 -47 33 -42 33 5 58 28 44 41 -5 5 -23 12 -40
15 -27 6 -32 4 -37 -14z"/>
<path d="M5920 3596 c0 -23 4 -26 35 -26 23 0 38 6 42 15 7 20 5 22 -39 30
-36 7 -38 6 -38 -19z"/>
<path d="M5887 3553 c-4 -3 -7 -17 -7 -30 0 -18 6 -23 24 -23 13 0 31 3 40 6
23 9 20 34 -4 34 -11 0 -20 5 -20 10 0 11 -23 14 -33 3z"/>
<path d="M5840 3476 c-5 -13 -16 -29 -26 -34 -9 -5 -18 -21 -19 -36 -3 -22 1
-26 23 -26 15 0 33 4 41 9 16 10 6 31 -15 31 -8 0 -14 5 -14 10 0 6 10 10 23
10 38 0 67 12 67 26 0 8 -9 14 -20 14 -11 0 -20 5 -20 10 0 20 -31 9 -40 -14z"/>
<path d="M5737 3373 c-4 -3 -7 -17 -7 -30 0 -17 6 -23 23 -23 57 0 90 26 47
37 -11 3 -20 9 -20 14 0 10 -34 12 -43 2z"/>
<path d="M5678 3288 c-3 -29 -6 -33 -30 -30 -20 2 -28 -1 -28 -11 0 -9 -3 -23
-7 -32 -5 -15 0 -17 41 -13 56 6 83 25 48 34 -35 10 -26 21 23 28 52 8 66 23
30 32 -14 3 -25 10 -25 15 0 5 -11 9 -24 9 -21 0 -25 -6 -28 -32z"/>
<path d="M5553 3188 c0 -7 -4 -22 -8 -32 -8 -17 -5 -19 25 -13 18 4 43 7 56 7
15 0 24 6 24 15 0 8 -9 15 -19 15 -11 0 -23 5 -26 10 -9 14 -52 12 -52 -2z"/>
<path d="M5480 3122 c0 -10 -6 -24 -12 -31 -11 -11 -8 -12 17 -6 17 4 44 7 62
6 44 -2 50 14 12 33 -44 22 -79 21 -79 -2z"/>
<path d="M5410 3064 c-6 -14 -10 -27 -10 -28 0 -8 99 -3 111 5 10 6 5 10 -18
15 -17 3 -34 12 -37 20 -9 23 -36 16 -46 -12z"/>
<path d="M4231 3045 c0 -11 4 -27 9 -35 9 -13 10 -13 9 0 0 8 -4 24 -9 35 l-9
20 0 -20z"/>
<path d="M5339 3029 c-8 -4 -15 -13 -15 -19 -1 -5 -2 -14 -3 -20 0 -5 -16 -10
-35 -10 -36 0 -49 -11 -51 -43 -1 -15 4 -18 23 -14 14 3 34 0 44 -6 13 -9 21
-8 30 1 11 11 9 16 -6 28 -27 19 -13 29 44 29 27 0 55 6 62 13 10 10 9 12 -4
12 -9 0 -23 6 -30 13 -20 20 -43 26 -59 16z"/>
<path d="M1196 2937 c-10 -15 -16 -31 -12 -34 11 -11 38 23 34 43 -3 17 -6 15
-22 -9z"/>
<path d="M5158 2919 c-10 -5 -18 -17 -18 -24 0 -10 -11 -15 -34 -15 -48 0 -66
-9 -66 -32 0 -12 12 -24 36 -34 52 -22 101 0 57 25 -14 8 -15 12 -6 22 9 9 24
10 57 2 29 -6 50 -6 62 0 15 9 14 13 -16 38 -35 31 -46 34 -72 18z"/>
<path d="M4945 2820 c-17 -19 -17 -22 -3 -36 9 -9 37 -19 62 -21 40 -5 45 -3
40 10 -3 9 -14 19 -25 22 -10 4 -19 12 -19 20 0 7 -7 16 -16 19 -21 8 -18 9
-39 -14z"/>
<path d="M4320 2789 c7 -11 14 -18 17 -15 8 8 -5 36 -17 36 -7 0 -7 -6 0 -21z"/>
<path d="M4831 2777 c-19 -24 23 -52 72 -48 25 2 21 20 -7 31 -13 5 -27 14
-31 19 -8 15 -20 14 -34 -2z"/>
<path d="M4390 2760 c0 -13 -9 -22 -27 -26 -44 -9 -50 -12 -25 -13 15 -1 26
-9 29 -21 3 -12 16 -21 37 -25 17 -2 60 -10 96 -16 64 -11 218 -4 205 9 -4 4
-32 8 -63 9 -81 2 -133 9 -165 22 -16 6 -39 11 -53 11 -29 0 -32 20 -4 27 24
6 26 28 4 37 -26 10 -34 7 -34 -14z"/>
<path d="M4497 2744 c-10 -11 3 -24 23 -24 13 0 17 5 14 15 -6 15 -26 20 -37
9z"/>
<path d="M4710 2741 c0 -16 47 -40 69 -34 21 5 21 5 -3 24 -25 20 -66 26 -66
10z"/>
<path d="M4605 2731 c-7 -12 1 -17 45 -26 l35 -7 -19 21 c-20 22 -51 28 -61
12z"/>
<path d="M0 628 l0 -135 28 5 c34 6 52 20 52 41 0 9 6 27 13 41 8 14 17 40 20
58 4 18 17 46 29 62 13 19 18 34 12 39 -5 5 -42 13 -81 17 l-73 7 0 -135z"/>
<path d="M280 585 c-25 -13 -51 -24 -57 -24 -7 -1 -13 -5 -13 -11 0 -14 35
-30 67 -30 16 0 33 -4 39 -9 5 -4 23 -13 39 -18 76 -25 202 -124 285 -222 24
-28 45 -49 47 -47 6 6 -42 90 -80 141 -45 60 -198 214 -229 231 -34 18 -43 17
-98 -11z"/>
</g>
</svg>
